<svg xmlns="http://www.w3.org/2000/svg" viewBox="0 0 1100 560">
<rect width="1100" height="560" fill="#f7f9f5"/>
<text x="60" y="58" font-family="Arial" font-size="26" font-weight="700" fill="#18231f">Integrated biocontrol trajectories</text>
<text x="60" y="84" font-family="Arial" font-size="13" fill="#5f6e67">Normalized abundance across the simulation horizon</text>
<line x1="80" y1="430" x2="1030" y2="430" stroke="#d9e2dc"/>
<line x1="80" y1="130" x2="80" y2="430" stroke="#d9e2dc"/>
<polyline points="80.0,377.8 92.0,336.5 104.1,130.0 116.1,130.0 128.1,130.0 140.1,130.0 152.2,130.0 164.2,130.0 176.2,130.0 188.2,130.0 200.3,130.0 212.3,130.0 224.3,130.0 236.3,130.0 248.4,130.0 260.4,130.0 272.4,130.0 284.4,130.0 296.5,130.0 308.5,130.0 320.5,130.0 332.5,130.0 344.6,130.0 356.6,130.0 368.6,130.0 380.6,130.0 392.7,130.0 404.7,130.0 416.7,130.0 428.7,130.0 440.8,130.0 452.8,130.0 464.8,130.0 476.8,130.0 488.9,130.0 500.9,130.0 512.9,130.0 524.9,130.0 537.0,130.0 549.0,130.0 561.0,130.0 573.0,130.0 585.1,130.0 597.1,130.0 609.1,130.0 621.1,130.0 633.2,130.0 645.2,130.0 657.2,130.0 669.2,130.0 681.3,130.0 693.3,130.0 705.3,130.0 717.3,130.0 729.4,130.0 741.4,130.0 753.4,130.0 765.4,130.0 777.5,130.0 789.5,130.0 801.5,130.0 813.5,130.0 825.6,130.0 837.6,130.0 849.6,130.0 861.6,130.0 873.7,130.0 885.7,130.0 897.7,130.0 909.7,130.0 921.8,130.0 933.8,130.0 945.8,130.0 957.8,130.0 969.9,130.0 981.9,130.0 993.9,130.0 1005.9,130.0 1018.0,130.0 1030.0,130.0" fill="none" stroke="#1d3d32" stroke-width="4"/><circle cx="80.0" cy="377.8" r="5" fill="#1d3d32"/><circle cx="92.0" cy="336.5" r="5" fill="#1d3d32"/><circle cx="104.1" cy="130.0" r="5" fill="#1d3d32"/><circle cx="116.1" cy="130.0" r="5" fill="#1d3d32"/><circle cx="128.1" cy="130.0" r="5" fill="#1d3d32"/><circle cx="140.1" cy="130.0" r="5" fill="#1d3d32"/><circle cx="152.2" cy="130.0" r="5" fill="#1d3d32"/><circle cx="164.2" cy="130.0" r="5" fill="#1d3d32"/><circle cx="176.2" cy="130.0" r="5" fill="#1d3d32"/><circle cx="188.2" cy="130.0" r="5" fill="#1d3d32"/><circle cx="200.3" cy="130.0" r="5" fill="#1d3d32"/><circle cx="212.3" cy="130.0" r="5" fill="#1d3d32"/><circle cx="224.3" cy="130.0" r="5" fill="#1d3d32"/><circle cx="236.3" cy="130.0" r="5" fill="#1d3d32"/><circle cx="248.4" cy="130.0" r="5" fill="#1d3d32"/><circle cx="260.4" cy="130.0" r="5" fill="#1d3d32"/><circle cx="272.4" cy="130.0" r="5" fill="#1d3d32"/><circle cx="284.4" cy="130.0" r="5" fill="#1d3d32"/><circle cx="296.5" cy="130.0" r="5" fill="#1d3d32"/><circle cx="308.5" cy="130.0" r="5" fill="#1d3d32"/><circle cx="320.5" cy="130.0" r="5" fill="#1d3d32"/><circle cx="332.5" cy="130.0" r="5" fill="#1d3d32"/><circle cx="344.6" cy="130.0" r="5" fill="#1d3d32"/><circle cx="356.6" cy="130.0" r="5" fill="#1d3d32"/><circle cx="368.6" cy="130.0" r="5" fill="#1d3d32"/><circle cx="380.6" cy="130.0" r="5" fill="#1d3d32"/><circle cx="392.7" cy="130.0" r="5" fill="#1d3d32"/><circle cx="404.7" cy="130.0" r="5" fill="#1d3d32"/><circle cx="416.7" cy="130.0" r="5" fill="#1d3d32"/><circle cx="428.7" cy="130.0" r="5" fill="#1d3d32"/><circle cx="440.8" cy="130.0" r="5" fill="#1d3d32"/><circle cx="452.8" cy="130.0" r="5" fill="#1d3d32"/><circle cx="464.8" cy="130.0" r="5" fill="#1d3d32"/><circle cx="476.8" cy="130.0" r="5" fill="#1d3d32"/><circle cx="488.9" cy="130.0" r="5" fill="#1d3d32"/><circle cx="500.9" cy="130.0" r="5" fill="#1d3d32"/><circle cx="512.9" cy="130.0" r="5" fill="#1d3d32"/><circle cx="524.9" cy="130.0" r="5" fill="#1d3d32"/><circle cx="537.0" cy="130.0" r="5" fill="#1d3d32"/><circle cx="549.0" cy="130.0" r="5" fill="#1d3d32"/><circle cx="561.0" cy="130.0" r="5" fill="#1d3d32"/><circle cx="573.0" cy="130.0" r="5" fill="#1d3d32"/><circle cx="585.1" cy="130.0" r="5" fill="#1d3d32"/><circle cx="597.1" cy="130.0" r="5" fill="#1d3d32"/><circle cx="609.1" cy="130.0" r="5" fill="#1d3d32"/><circle cx="621.1" cy="130.0" r="5" fill="#1d3d32"/><circle cx="633.2" cy="130.0" r="5" fill="#1d3d32"/><circle cx="645.2" cy="130.0" r="5" fill="#1d3d32"/><circle cx="657.2" cy="130.0" r="5" fill="#1d3d32"/><circle cx="669.2" cy="130.0" r="5" fill="#1d3d32"/><circle cx="681.3" cy="130.0" r="5" fill="#1d3d32"/><circle cx="693.3" cy="130.0" r="5" fill="#1d3d32"/><circle cx="705.3" cy="130.0" r="5" fill="#1d3d32"/><circle cx="717.3" cy="130.0" r="5" fill="#1d3d32"/><circle cx="729.4" cy="130.0" r="5" fill="#1d3d32"/><circle cx="741.4" cy="130.0" r="5" fill="#1d3d32"/><circle cx="753.4" cy="130.0" r="5" fill="#1d3d32"/><circle cx="765.4" cy="130.0" r="5" fill="#1d3d32"/><circle cx="777.5" cy="130.0" r="5" fill="#1d3d32"/><circle cx="789.5" cy="130.0" r="5" fill="#1d3d32"/><circle cx="801.5" cy="130.0" r="5" fill="#1d3d32"/><circle cx="813.5" cy="130.0" r="5" fill="#1d3d32"/><circle cx="825.6" cy="130.0" r="5" fill="#1d3d32"/><circle cx="837.6" cy="130.0" r="5" fill="#1d3d32"/><circle cx="849.6" cy="130.0" r="5" fill="#1d3d32"/><circle cx="861.6" cy="130.0" r="5" fill="#1d3d32"/><circle cx="873.7" cy="130.0" r="5" fill="#1d3d32"/><circle cx="885.7" cy="130.0" r="5" fill="#1d3d32"/><circle cx="897.7" cy="130.0" r="5" fill="#1d3d32"/><circle cx="909.7" cy="130.0" r="5" fill="#1d3d32"/><circle cx="921.8" cy="130.0" r="5" fill="#1d3d32"/><circle cx="933.8" cy="130.0" r="5" fill="#1d3d32"/><circle cx="945.8" cy="130.0" r="5" fill="#1d3d32"/><circle cx="957.8" cy="130.0" r="5" fill="#1d3d32"/><circle cx="969.9" cy="130.0" r="5" fill="#1d3d32"/><circle cx="981.9" cy="130.0" r="5" fill="#1d3d32"/><circle cx="993.9" cy="130.0" r="5" fill="#1d3d32"/><circle cx="1005.9" cy="130.0" r="5" fill="#1d3d32"/><circle cx="1018.0" cy="130.0" r="5" fill="#1d3d32"/><circle cx="1030.0" cy="130.0" r="5" fill="#1d3d32"/><polyline points="80.0,130.0 92.0,260.8 104.1,393.7 116.1,401.0 128.1,417.7 140.1,426.1 152.2,428.5 164.2,429.5 176.2,429.8 188.2,429.9 200.3,430.0 212.3,430.0 224.3,430.0 236.3,430.0 248.4,430.0 260.4,430.0 272.4,430.0 284.4,430.0 296.5,430.0 308.5,430.0 320.5,430.0 332.5,430.0 344.6,430.0 356.6,430.0 368.6,430.0 380.6,430.0 392.7,430.0 404.7,430.0 416.7,430.0 428.7,430.0 440.8,430.0 452.8,430.0 464.8,430.0 476.8,430.0 488.9,430.0 500.9,430.0 512.9,430.0 524.9,430.0 537.0,430.0 549.0,430.0 561.0,430.0 573.0,430.0 585.1,430.0 597.1,430.0 609.1,430.0 621.1,430.0 633.2,430.0 645.2,430.0 657.2,430.0 669.2,430.0 681.3,430.0 693.3,430.0 705.3,430.0 717.3,430.0 729.4,430.0 741.4,430.0 753.4,430.0 765.4,430.0 777.5,430.0 789.5,430.0 801.5,430.0 813.5,430.0 825.6,430.0 837.6,430.0 849.6,430.0 861.6,430.0 873.7,430.0 885.7,430.0 897.7,430.0 909.7,430.0 921.8,430.0 933.8,430.0 945.8,430.0 957.8,430.0 969.9,430.0 981.9,430.0 993.9,430.0 1005.9,430.0 1018.0,430.0 1030.0,430.0" fill="none" stroke="#d97955" stroke-width="4"/><circle cx="80.0" cy="130.0" r="5" fill="#d97955"/><circle cx="92.0" cy="260.8" r="5" fill="#d97955"/><circle cx="104.1" cy="393.7" r="5" fill="#d97955"/><circle cx="116.1" cy="401.0" r="5" fill="#d97955"/><circle cx="128.1" cy="417.7" r="5" fill="#d97955"/><circle cx="140.1" cy="426.1" r="5" fill="#d97955"/><circle cx="152.2" cy="428.5" r="5" fill="#d97955"/><circle cx="164.2" cy="429.5" r="5" fill="#d97955"/><circle cx="176.2" cy="429.8" r="5" fill="#d97955"/><circle cx="188.2" cy="429.9" r="5" fill="#d97955"/><circle cx="200.3" cy="430.0" r="5" fill="#d97955"/><circle cx="212.3" cy="430.0" r="5" fill="#d97955"/><circle cx="224.3" cy="430.0" r="5" fill="#d97955"/><circle cx="236.3" cy="430.0" r="5" fill="#d97955"/><circle cx="248.4" cy="430.0" r="5" fill="#d97955"/><circle cx="260.4" cy="430.0" r="5" fill="#d97955"/><circle cx="272.4" cy="430.0" r="5" fill="#d97955"/><circle cx="284.4" cy="430.0" r="5" fill="#d97955"/><circle cx="296.5" cy="430.0" r="5" fill="#d97955"/><circle cx="308.5" cy="430.0" r="5" fill="#d97955"/><circle cx="320.5" cy="430.0" r="5" fill="#d97955"/><circle cx="332.5" cy="430.0" r="5" fill="#d97955"/><circle cx="344.6" cy="430.0" r="5" fill="#d97955"/><circle cx="356.6" cy="430.0" r="5" fill="#d97955"/><circle cx="368.6" cy="430.0" r="5" fill="#d97955"/><circle cx="380.6" cy="430.0" r="5" fill="#d97955"/><circle cx="392.7" cy="430.0" r="5" fill="#d97955"/><circle cx="404.7" cy="430.0" r="5" fill="#d97955"/><circle cx="416.7" cy="430.0" r="5" fill="#d97955"/><circle cx="428.7" cy="430.0" r="5" fill="#d97955"/><circle cx="440.8" cy="430.0" r="5" fill="#d97955"/><circle cx="452.8" cy="430.0" r="5" fill="#d97955"/><circle cx="464.8" cy="430.0" r="5" fill="#d97955"/><circle cx="476.8" cy="430.0" r="5" fill="#d97955"/><circle cx="488.9" cy="430.0" r="5" fill="#d97955"/><circle cx="500.9" cy="430.0" r="5" fill="#d97955"/><circle cx="512.9" cy="430.0" r="5" fill="#d97955"/><circle cx="524.9" cy="430.0" r="5" fill="#d97955"/><circle cx="537.0" cy="430.0" r="5" fill="#d97955"/><circle cx="549.0" cy="430.0" r="5" fill="#d97955"/><circle cx="561.0" cy="430.0" r="5" fill="#d97955"/><circle cx="573.0" cy="430.0" r="5" fill="#d97955"/><circle cx="585.1" cy="430.0" r="5" fill="#d97955"/><circle cx="597.1" cy="430.0" r="5" fill="#d97955"/><circle cx="609.1" cy="430.0" r="5" fill="#d97955"/><circle cx="621.1" cy="430.0" r="5" fill="#d97955"/><circle cx="633.2" cy="430.0" r="5" fill="#d97955"/><circle cx="645.2" cy="430.0" r="5" fill="#d97955"/><circle cx="657.2" cy="430.0" r="5" fill="#d97955"/><circle cx="669.2" cy="430.0" r="5" fill="#d97955"/><circle cx="681.3" cy="430.0" r="5" fill="#d97955"/><circle cx="693.3" cy="430.0" r="5" fill="#d97955"/><circle cx="705.3" cy="430.0" r="5" fill="#d97955"/><circle cx="717.3" cy="430.0" r="5" fill="#d97955"/><circle cx="729.4" cy="430.0" r="5" fill="#d97955"/><circle cx="741.4" cy="430.0" r="5" fill="#d97955"/><circle cx="753.4" cy="430.0" r="5" fill="#d97955"/><circle cx="765.4" cy="430.0" r="5" fill="#d97955"/><circle cx="777.5" cy="430.0" r="5" fill="#d97955"/><circle cx="789.5" cy="430.0" r="5" fill="#d97955"/><circle cx="801.5" cy="430.0" r="5" fill="#d97955"/><circle cx="813.5" cy="430.0" r="5" fill="#d97955"/><circle cx="825.6" cy="430.0" r="5" fill="#d97955"/><circle cx="837.6" cy="430.0" r="5" fill="#d97955"/><circle cx="849.6" cy="430.0" r="5" fill="#d97955"/><circle cx="861.6" cy="430.0" r="5" fill="#d97955"/><circle cx="873.7" cy="430.0" r="5" fill="#d97955"/><circle cx="885.7" cy="430.0" r="5" fill="#d97955"/><circle cx="897.7" cy="430.0" r="5" fill="#d97955"/><circle cx="909.7" cy="430.0" r="5" fill="#d97955"/><circle cx="921.8" cy="430.0" r="5" fill="#d97955"/><circle cx="933.8" cy="430.0" r="5" fill="#d97955"/><circle cx="945.8" cy="430.0" r="5" fill="#d97955"/><circle cx="957.8" cy="430.0" r="5" fill="#d97955"/><circle cx="969.9" cy="430.0" r="5" fill="#d97955"/><circle cx="981.9" cy="430.0" r="5" fill="#d97955"/><circle cx="993.9" cy="430.0" r="5" fill="#d97955"/><circle cx="1005.9" cy="430.0" r="5" fill="#d97955"/><circle cx="1018.0" cy="430.0" r="5" fill="#d97955"/><circle cx="1030.0" cy="430.0" r="5" fill="#d97955"/><polyline points="80.0,343.7 92.0,247.5 104.1,170.6 116.1,145.2 128.1,130.0 140.1,130.9 152.2,135.7 164.2,142.1 176.2,146.7 188.2,151.6 200.3,155.6 212.3,158.2 224.3,161.0 236.3,162.9 248.4,164.9 260.4,166.6 272.4,167.7 284.4,169.0 296.5,169.9 308.5,170.9 320.5,171.7 332.5,172.3 344.6,173.0 356.6,173.5 368.6,174.0 380.6,174.5 392.7,174.9 404.7,175.3 416.7,175.7 428.7,175.9 440.8,176.3 452.8,176.5 464.8,176.8 476.8,177.0 488.9,177.2 500.9,177.4 512.9,177.6 524.9,177.7 537.0,177.9 549.0,178.0 561.0,178.2 573.0,178.3 585.1,178.4 597.1,178.5 609.1,178.6 621.1,178.7 633.2,178.8 645.2,178.9 657.2,178.9 669.2,179.0 681.3,179.1 693.3,179.1 705.3,179.2 717.3,179.2 729.4,179.3 741.4,179.3 753.4,179.4 765.4,179.4 777.5,179.4 789.5,179.5 801.5,179.5 813.5,179.5 825.6,179.6 837.6,179.6 849.6,179.6 861.6,179.6 873.7,179.6 885.7,179.7 897.7,179.7 909.7,179.7 921.8,179.7 933.8,179.7 945.8,179.7 957.8,179.8 969.9,179.8 981.9,179.8 993.9,179.8 1005.9,179.8 1018.0,179.8 1030.0,179.8" fill="none" stroke="#277da1" stroke-width="4"/><circle cx="80.0" cy="343.7" r="5" fill="#277da1"/><circle cx="92.0" cy="247.5" r="5" fill="#277da1"/><circle cx="104.1" cy="170.6" r="5" fill="#277da1"/><circle cx="116.1" cy="145.2" r="5" fill="#277da1"/><circle cx="128.1" cy="130.0" r="5" fill="#277da1"/><circle cx="140.1" cy="130.9" r="5" fill="#277da1"/><circle cx="152.2" cy="135.7" r="5" fill="#277da1"/><circle cx="164.2" cy="142.1" r="5" fill="#277da1"/><circle cx="176.2" cy="146.7" r="5" fill="#277da1"/><circle cx="188.2" cy="151.6" r="5" fill="#277da1"/><circle cx="200.3" cy="155.6" r="5" fill="#277da1"/><circle cx="212.3" cy="158.2" r="5" fill="#277da1"/><circle cx="224.3" cy="161.0" r="5" fill="#277da1"/><circle cx="236.3" cy="162.9" r="5" fill="#277da1"/><circle cx="248.4" cy="164.9" r="5" fill="#277da1"/><circle cx="260.4" cy="166.6" r="5" fill="#277da1"/><circle cx="272.4" cy="167.7" r="5" fill="#277da1"/><circle cx="284.4" cy="169.0" r="5" fill="#277da1"/><circle cx="296.5" cy="169.9" r="5" fill="#277da1"/><circle cx="308.5" cy="170.9" r="5" fill="#277da1"/><circle cx="320.5" cy="171.7" r="5" fill="#277da1"/><circle cx="332.5" cy="172.3" r="5" fill="#277da1"/><circle cx="344.6" cy="173.0" r="5" fill="#277da1"/><circle cx="356.6" cy="173.5" r="5" fill="#277da1"/><circle cx="368.6" cy="174.0" r="5" fill="#277da1"/><circle cx="380.6" cy="174.5" r="5" fill="#277da1"/><circle cx="392.7" cy="174.9" r="5" fill="#277da1"/><circle cx="404.7" cy="175.3" r="5" fill="#277da1"/><circle cx="416.7" cy="175.7" r="5" fill="#277da1"/><circle cx="428.7" cy="175.9" r="5" fill="#277da1"/><circle cx="440.8" cy="176.3" r="5" fill="#277da1"/><circle cx="452.8" cy="176.5" r="5" fill="#277da1"/><circle cx="464.8" cy="176.8" r="5" fill="#277da1"/><circle cx="476.8" cy="177.0" r="5" fill="#277da1"/><circle cx="488.9" cy="177.2" r="5" fill="#277da1"/><circle cx="500.9" cy="177.4" r="5" fill="#277da1"/><circle cx="512.9" cy="177.6" r="5" fill="#277da1"/><circle cx="524.9" cy="177.7" r="5" fill="#277da1"/><circle cx="537.0" cy="177.9" r="5" fill="#277da1"/><circle cx="549.0" cy="178.0" r="5" fill="#277da1"/><circle cx="561.0" cy="178.2" r="5" fill="#277da1"/><circle cx="573.0" cy="178.3" r="5" fill="#277da1"/><circle cx="585.1" cy="178.4" r="5" fill="#277da1"/><circle cx="597.1" cy="178.5" r="5" fill="#277da1"/><circle cx="609.1" cy="178.6" r="5" fill="#277da1"/><circle cx="621.1" cy="178.7" r="5" fill="#277da1"/><circle cx="633.2" cy="178.8" r="5" fill="#277da1"/><circle cx="645.2" cy="178.9" r="5" fill="#277da1"/><circle cx="657.2" cy="178.9" r="5" fill="#277da1"/><circle cx="669.2" cy="179.0" r="5" fill="#277da1"/><circle cx="681.3" cy="179.1" r="5" fill="#277da1"/><circle cx="693.3" cy="179.1" r="5" fill="#277da1"/><circle cx="705.3" cy="179.2" r="5" fill="#277da1"/><circle cx="717.3" cy="179.2" r="5" fill="#277da1"/><circle cx="729.4" cy="179.3" r="5" fill="#277da1"/><circle cx="741.4" cy="179.3" r="5" fill="#277da1"/><circle cx="753.4" cy="179.4" r="5" fill="#277da1"/><circle cx="765.4" cy="179.4" r="5" fill="#277da1"/><circle cx="777.5" cy="179.4" r="5" fill="#277da1"/><circle cx="789.5" cy="179.5" r="5" fill="#277da1"/><circle cx="801.5" cy="179.5" r="5" fill="#277da1"/><circle cx="813.5" cy="179.5" r="5" fill="#277da1"/><circle cx="825.6" cy="179.6" r="5" fill="#277da1"/><circle cx="837.6" cy="179.6" r="5" fill="#277da1"/><circle cx="849.6" cy="179.6" r="5" fill="#277da1"/><circle cx="861.6" cy="179.6" r="5" fill="#277da1"/><circle cx="873.7" cy="179.6" r="5" fill="#277da1"/><circle cx="885.7" cy="179.7" r="5" fill="#277da1"/><circle cx="897.7" cy="179.7" r="5" fill="#277da1"/><circle cx="909.7" cy="179.7" r="5" fill="#277da1"/><circle cx="921.8" cy="179.7" r="5" fill="#277da1"/><circle cx="933.8" cy="179.7" r="5" fill="#277da1"/><circle cx="945.8" cy="179.7" r="5" fill="#277da1"/><circle cx="957.8" cy="179.8" r="5" fill="#277da1"/><circle cx="969.9" cy="179.8" r="5" fill="#277da1"/><circle cx="981.9" cy="179.8" r="5" fill="#277da1"/><circle cx="993.9" cy="179.8" r="5" fill="#277da1"/><circle cx="1005.9" cy="179.8" r="5" fill="#277da1"/><circle cx="1018.0" cy="179.8" r="5" fill="#277da1"/><circle cx="1030.0" cy="179.8" r="5" fill="#277da1"/><polyline points="80.0,364.6 92.0,282.8 104.1,210.9 116.1,182.5 128.1,159.9 140.1,152.4 152.2,151.0 164.2,150.9 176.2,150.9 188.2,150.8 200.3,150.4 212.3,150.0 224.3,149.2 236.3,148.6 248.4,147.7 260.4,146.8 272.4,146.0 284.4,145.1 296.5,144.3 308.5,143.4 320.5,142.5 332.5,141.8 344.6,141.0 356.6,140.4 368.6,139.6 380.6,138.9 392.7,138.4 404.7,137.8 416.7,137.2 428.7,136.8 440.8,136.2 452.8,135.9 464.8,135.4 476.8,135.0 488.9,134.7 500.9,134.3 512.9,134.0 524.9,133.7 537.0,133.4 549.0,133.2 561.0,132.9 573.0,132.8 585.1,132.5 597.1,132.3 609.1,132.2 621.1,132.0 633.2,131.9 645.2,131.7 657.2,131.6 669.2,131.4 681.3,131.3 693.3,131.2 705.3,131.1 717.3,131.0 729.4,131.0 741.4,130.9 753.4,130.8 765.4,130.7 777.5,130.7 789.5,130.6 801.5,130.5 813.5,130.5 825.6,130.4 837.6,130.4 849.6,130.4 861.6,130.3 873.7,130.3 885.7,130.3 897.7,130.2 909.7,130.2 921.8,130.2 933.8,130.1 945.8,130.1 957.8,130.1 969.9,130.1 981.9,130.1 993.9,130.0 1005.9,130.0 1018.0,130.0 1030.0,130.0" fill="none" stroke="#6f5c85" stroke-width="4"/><circle cx="80.0" cy="364.6" r="5" fill="#6f5c85"/><circle cx="92.0" cy="282.8" r="5" fill="#6f5c85"/><circle cx="104.1" cy="210.9" r="5" fill="#6f5c85"/><circle cx="116.1" cy="182.5" r="5" fill="#6f5c85"/><circle cx="128.1" cy="159.9" r="5" fill="#6f5c85"/><circle cx="140.1" cy="152.4" r="5" fill="#6f5c85"/><circle cx="152.2" cy="151.0" r="5" fill="#6f5c85"/><circle cx="164.2" cy="150.9" r="5" fill="#6f5c85"/><circle cx="176.2" cy="150.9" r="5" fill="#6f5c85"/><circle cx="188.2" cy="150.8" r="5" fill="#6f5c85"/><circle cx="200.3" cy="150.4" r="5" fill="#6f5c85"/><circle cx="212.3" cy="150.0" r="5" fill="#6f5c85"/><circle cx="224.3" cy="149.2" r="5" fill="#6f5c85"/><circle cx="236.3" cy="148.6" r="5" fill="#6f5c85"/><circle cx="248.4" cy="147.7" r="5" fill="#6f5c85"/><circle cx="260.4" cy="146.8" r="5" fill="#6f5c85"/><circle cx="272.4" cy="146.0" r="5" fill="#6f5c85"/><circle cx="284.4" cy="145.1" r="5" fill="#6f5c85"/><circle cx="296.5" cy="144.3" r="5" fill="#6f5c85"/><circle cx="308.5" cy="143.4" r="5" fill="#6f5c85"/><circle cx="320.5" cy="142.5" r="5" fill="#6f5c85"/><circle cx="332.5" cy="141.8" r="5" fill="#6f5c85"/><circle cx="344.6" cy="141.0" r="5" fill="#6f5c85"/><circle cx="356.6" cy="140.4" r="5" fill="#6f5c85"/><circle cx="368.6" cy="139.6" r="5" fill="#6f5c85"/><circle cx="380.6" cy="138.9" r="5" fill="#6f5c85"/><circle cx="392.7" cy="138.4" r="5" fill="#6f5c85"/><circle cx="404.7" cy="137.8" r="5" fill="#6f5c85"/><circle cx="416.7" cy="137.2" r="5" fill="#6f5c85"/><circle cx="428.7" cy="136.8" r="5" fill="#6f5c85"/><circle cx="440.8" cy="136.2" r="5" fill="#6f5c85"/><circle cx="452.8" cy="135.9" r="5" fill="#6f5c85"/><circle cx="464.8" cy="135.4" r="5" fill="#6f5c85"/><circle cx="476.8" cy="135.0" r="5" fill="#6f5c85"/><circle cx="488.9" cy="134.7" r="5" fill="#6f5c85"/><circle cx="500.9" cy="134.3" r="5" fill="#6f5c85"/><circle cx="512.9" cy="134.0" r="5" fill="#6f5c85"/><circle cx="524.9" cy="133.7" r="5" fill="#6f5c85"/><circle cx="537.0" cy="133.4" r="5" fill="#6f5c85"/><circle cx="549.0" cy="133.2" r="5" fill="#6f5c85"/><circle cx="561.0" cy="132.9" r="5" fill="#6f5c85"/><circle cx="573.0" cy="132.8" r="5" fill="#6f5c85"/><circle cx="585.1" cy="132.5" r="5" fill="#6f5c85"/><circle cx="597.1" cy="132.3" r="5" fill="#6f5c85"/><circle cx="609.1" cy="132.2" r="5" fill="#6f5c85"/><circle cx="621.1" cy="132.0" r="5" fill="#6f5c85"/><circle cx="633.2" cy="131.9" r="5" fill="#6f5c85"/><circle cx="645.2" cy="131.7" r="5" fill="#6f5c85"/><circle cx="657.2" cy="131.6" r="5" fill="#6f5c85"/><circle cx="669.2" cy="131.4" r="5" fill="#6f5c85"/><circle cx="681.3" cy="131.3" r="5" fill="#6f5c85"/><circle cx="693.3" cy="131.2" r="5" fill="#6f5c85"/><circle cx="705.3" cy="131.1" r="5" fill="#6f5c85"/><circle cx="717.3" cy="131.0" r="5" fill="#6f5c85"/><circle cx="729.4" cy="131.0" r="5" fill="#6f5c85"/><circle cx="741.4" cy="130.9" r="5" fill="#6f5c85"/><circle cx="753.4" cy="130.8" r="5" fill="#6f5c85"/><circle cx="765.4" cy="130.7" r="5" fill="#6f5c85"/><circle cx="777.5" cy="130.7" r="5" fill="#6f5c85"/><circle cx="789.5" cy="130.6" r="5" fill="#6f5c85"/><circle cx="801.5" cy="130.5" r="5" fill="#6f5c85"/><circle cx="813.5" cy="130.5" r="5" fill="#6f5c85"/><circle cx="825.6" cy="130.4" r="5" fill="#6f5c85"/><circle cx="837.6" cy="130.4" r="5" fill="#6f5c85"/><circle cx="849.6" cy="130.4" r="5" fill="#6f5c85"/><circle cx="861.6" cy="130.3" r="5" fill="#6f5c85"/><circle cx="873.7" cy="130.3" r="5" fill="#6f5c85"/><circle cx="885.7" cy="130.3" r="5" fill="#6f5c85"/><circle cx="897.7" cy="130.2" r="5" fill="#6f5c85"/><circle cx="909.7" cy="130.2" r="5" fill="#6f5c85"/><circle cx="921.8" cy="130.2" r="5" fill="#6f5c85"/><circle cx="933.8" cy="130.1" r="5" fill="#6f5c85"/><circle cx="945.8" cy="130.1" r="5" fill="#6f5c85"/><circle cx="957.8" cy="130.1" r="5" fill="#6f5c85"/><circle cx="969.9" cy="130.1" r="5" fill="#6f5c85"/><circle cx="981.9" cy="130.1" r="5" fill="#6f5c85"/><circle cx="993.9" cy="130.0" r="5" fill="#6f5c85"/><circle cx="1005.9" cy="130.0" r="5" fill="#6f5c85"/><circle cx="1018.0" cy="130.0" r="5" fill="#6f5c85"/><circle cx="1030.0" cy="130.0" r="5" fill="#6f5c85"/><polyline points="80.0,388.3 92.0,347.8 104.1,130.0 116.1,130.0 128.1,130.0 140.1,130.0 152.2,130.0 164.2,130.0 176.2,130.0 188.2,130.0 200.3,130.0 212.3,130.0 224.3,130.0 236.3,130.0 248.4,130.0 260.4,130.0 272.4,130.0 284.4,130.0 296.5,130.0 308.5,130.0 320.5,130.0 332.5,130.0 344.6,130.0 356.6,130.0 368.6,130.0 380.6,130.0 392.7,130.0 404.7,130.0 416.7,130.0 428.7,130.0 440.8,130.0 452.8,130.0 464.8,130.0 476.8,130.0 488.9,130.0 500.9,130.0 512.9,130.0 524.9,130.0 537.0,130.0 549.0,130.0 561.0,130.0 573.0,130.0 585.1,130.0 597.1,130.0 609.1,130.0 621.1,130.0 633.2,130.0 645.2,130.0 657.2,130.0 669.2,130.0 681.3,130.0 693.3,130.0 705.3,130.0 717.3,130.0 729.4,130.0 741.4,130.0 753.4,130.0 765.4,130.0 777.5,130.0 789.5,130.0 801.5,130.0 813.5,130.0 825.6,130.0 837.6,130.0 849.6,130.0 861.6,130.0 873.7,130.0 885.7,130.0 897.7,130.0 909.7,130.0 921.8,130.0 933.8,130.0 945.8,130.0 957.8,130.0 969.9,130.0 981.9,130.0 993.9,130.0 1005.9,130.0 1018.0,130.0 1030.0,130.0" fill="none" stroke="#e5b84d" stroke-width="4"/><circle cx="80.0" cy="388.3" r="5" fill="#e5b84d"/><circle cx="92.0" cy="347.8" r="5" fill="#e5b84d"/><circle cx="104.1" cy="130.0" r="5" fill="#e5b84d"/><circle cx="116.1" cy="130.0" r="5" fill="#e5b84d"/><circle cx="128.1" cy="130.0" r="5" fill="#e5b84d"/><circle cx="140.1" cy="130.0" r="5" fill="#e5b84d"/><circle cx="152.2" cy="130.0" r="5" fill="#e5b84d"/><circle cx="164.2" cy="130.0" r="5" fill="#e5b84d"/><circle cx="176.2" cy="130.0" r="5" fill="#e5b84d"/><circle cx="188.2" cy="130.0" r="5" fill="#e5b84d"/><circle cx="200.3" cy="130.0" r="5" fill="#e5b84d"/><circle cx="212.3" cy="130.0" r="5" fill="#e5b84d"/><circle cx="224.3" cy="130.0" r="5" fill="#e5b84d"/><circle cx="236.3" cy="130.0" r="5" fill="#e5b84d"/><circle cx="248.4" cy="130.0" r="5" fill="#e5b84d"/><circle cx="260.4" cy="130.0" r="5" fill="#e5b84d"/><circle cx="272.4" cy="130.0" r="5" fill="#e5b84d"/><circle cx="284.4" cy="130.0" r="5" fill="#e5b84d"/><circle cx="296.5" cy="130.0" r="5" fill="#e5b84d"/><circle cx="308.5" cy="130.0" r="5" fill="#e5b84d"/><circle cx="320.5" cy="130.0" r="5" fill="#e5b84d"/><circle cx="332.5" cy="130.0" r="5" fill="#e5b84d"/><circle cx="344.6" cy="130.0" r="5" fill="#e5b84d"/><circle cx="356.6" cy="130.0" r="5" fill="#e5b84d"/><circle cx="368.6" cy="130.0" r="5" fill="#e5b84d"/><circle cx="380.6" cy="130.0" r="5" fill="#e5b84d"/><circle cx="392.7" cy="130.0" r="5" fill="#e5b84d"/><circle cx="404.7" cy="130.0" r="5" fill="#e5b84d"/><circle cx="416.7" cy="130.0" r="5" fill="#e5b84d"/><circle cx="428.7" cy="130.0" r="5" fill="#e5b84d"/><circle cx="440.8" cy="130.0" r="5" fill="#e5b84d"/><circle cx="452.8" cy="130.0" r="5" fill="#e5b84d"/><circle cx="464.8" cy="130.0" r="5" fill="#e5b84d"/><circle cx="476.8" cy="130.0" r="5" fill="#e5b84d"/><circle cx="488.9" cy="130.0" r="5" fill="#e5b84d"/><circle cx="500.9" cy="130.0" r="5" fill="#e5b84d"/><circle cx="512.9" cy="130.0" r="5" fill="#e5b84d"/><circle cx="524.9" cy="130.0" r="5" fill="#e5b84d"/><circle cx="537.0" cy="130.0" r="5" fill="#e5b84d"/><circle cx="549.0" cy="130.0" r="5" fill="#e5b84d"/><circle cx="561.0" cy="130.0" r="5" fill="#e5b84d"/><circle cx="573.0" cy="130.0" r="5" fill="#e5b84d"/><circle cx="585.1" cy="130.0" r="5" fill="#e5b84d"/><circle cx="597.1" cy="130.0" r="5" fill="#e5b84d"/><circle cx="609.1" cy="130.0" r="5" fill="#e5b84d"/><circle cx="621.1" cy="130.0" r="5" fill="#e5b84d"/><circle cx="633.2" cy="130.0" r="5" fill="#e5b84d"/><circle cx="645.2" cy="130.0" r="5" fill="#e5b84d"/><circle cx="657.2" cy="130.0" r="5" fill="#e5b84d"/><circle cx="669.2" cy="130.0" r="5" fill="#e5b84d"/><circle cx="681.3" cy="130.0" r="5" fill="#e5b84d"/><circle cx="693.3" cy="130.0" r="5" fill="#e5b84d"/><circle cx="705.3" cy="130.0" r="5" fill="#e5b84d"/><circle cx="717.3" cy="130.0" r="5" fill="#e5b84d"/><circle cx="729.4" cy="130.0" r="5" fill="#e5b84d"/><circle cx="741.4" cy="130.0" r="5" fill="#e5b84d"/><circle cx="753.4" cy="130.0" r="5" fill="#e5b84d"/><circle cx="765.4" cy="130.0" r="5" fill="#e5b84d"/><circle cx="777.5" cy="130.0" r="5" fill="#e5b84d"/><circle cx="789.5" cy="130.0" r="5" fill="#e5b84d"/><circle cx="801.5" cy="130.0" r="5" fill="#e5b84d"/><circle cx="813.5" cy="130.0" r="5" fill="#e5b84d"/><circle cx="825.6" cy="130.0" r="5" fill="#e5b84d"/><circle cx="837.6" cy="130.0" r="5" fill="#e5b84d"/><circle cx="849.6" cy="130.0" r="5" fill="#e5b84d"/><circle cx="861.6" cy="130.0" r="5" fill="#e5b84d"/><circle cx="873.7" cy="130.0" r="5" fill="#e5b84d"/><circle cx="885.7" cy="130.0" r="5" fill="#e5b84d"/><circle cx="897.7" cy="130.0" r="5" fill="#e5b84d"/><circle cx="909.7" cy="130.0" r="5" fill="#e5b84d"/><circle cx="921.8" cy="130.0" r="5" fill="#e5b84d"/><circle cx="933.8" cy="130.0" r="5" fill="#e5b84d"/><circle cx="945.8" cy="130.0" r="5" fill="#e5b84d"/><circle cx="957.8" cy="130.0" r="5" fill="#e5b84d"/><circle cx="969.9" cy="130.0" r="5" fill="#e5b84d"/><circle cx="981.9" cy="130.0" r="5" fill="#e5b84d"/><circle cx="993.9" cy="130.0" r="5" fill="#e5b84d"/><circle cx="1005.9" cy="130.0" r="5" fill="#e5b84d"/><circle cx="1018.0" cy="130.0" r="5" fill="#e5b84d"/><circle cx="1030.0" cy="130.0" r="5" fill="#e5b84d"/><polyline points="80.0,346.5 92.0,298.7 104.1,130.0 116.1,130.0 128.1,130.0 140.1,130.0 152.2,130.0 164.2,130.0 176.2,130.0 188.2,130.0 200.3,130.0 212.3,130.0 224.3,130.0 236.3,130.0 248.4,130.0 260.4,130.0 272.4,130.0 284.4,130.0 296.5,130.0 308.5,130.0 320.5,130.0 332.5,130.0 344.6,130.0 356.6,130.0 368.6,130.0 380.6,130.0 392.7,130.0 404.7,130.0 416.7,130.0 428.7,130.0 440.8,130.0 452.8,130.0 464.8,130.0 476.8,130.0 488.9,130.0 500.9,130.0 512.9,130.0 524.9,130.0 537.0,130.0 549.0,130.0 561.0,130.0 573.0,130.0 585.1,130.0 597.1,130.0 609.1,130.0 621.1,130.0 633.2,130.0 645.2,130.0 657.2,130.0 669.2,130.0 681.3,130.0 693.3,130.0 705.3,130.0 717.3,130.0 729.4,130.0 741.4,130.0 753.4,130.0 765.4,130.0 777.5,130.0 789.5,130.0 801.5,130.0 813.5,130.0 825.6,130.0 837.6,130.0 849.6,130.0 861.6,130.0 873.7,130.0 885.7,130.0 897.7,130.0 909.7,130.0 921.8,130.0 933.8,130.0 945.8,130.0 957.8,130.0 969.9,130.0 981.9,130.0 993.9,130.0 1005.9,130.0 1018.0,130.0 1030.0,130.0" fill="none" stroke="#7a8c54" stroke-width="4"/><circle cx="80.0" cy="346.5" r="5" fill="#7a8c54"/><circle cx="92.0" cy="298.7" r="5" fill="#7a8c54"/><circle cx="104.1" cy="130.0" r="5" fill="#7a8c54"/><circle cx="116.1" cy="130.0" r="5" fill="#7a8c54"/><circle cx="128.1" cy="130.0" r="5" fill="#7a8c54"/><circle cx="140.1" cy="130.0" r="5" fill="#7a8c54"/><circle cx="152.2" cy="130.0" r="5" fill="#7a8c54"/><circle cx="164.2" cy="130.0" r="5" fill="#7a8c54"/><circle cx="176.2" cy="130.0" r="5" fill="#7a8c54"/><circle cx="188.2" cy="130.0" r="5" fill="#7a8c54"/><circle cx="200.3" cy="130.0" r="5" fill="#7a8c54"/><circle cx="212.3" cy="130.0" r="5" fill="#7a8c54"/><circle cx="224.3" cy="130.0" r="5" fill="#7a8c54"/><circle cx="236.3" cy="130.0" r="5" fill="#7a8c54"/><circle cx="248.4" cy="130.0" r="5" fill="#7a8c54"/><circle cx="260.4" cy="130.0" r="5" fill="#7a8c54"/><circle cx="272.4" cy="130.0" r="5" fill="#7a8c54"/><circle cx="284.4" cy="130.0" r="5" fill="#7a8c54"/><circle cx="296.5" cy="130.0" r="5" fill="#7a8c54"/><circle cx="308.5" cy="130.0" r="5" fill="#7a8c54"/><circle cx="320.5" cy="130.0" r="5" fill="#7a8c54"/><circle cx="332.5" cy="130.0" r="5" fill="#7a8c54"/><circle cx="344.6" cy="130.0" r="5" fill="#7a8c54"/><circle cx="356.6" cy="130.0" r="5" fill="#7a8c54"/><circle cx="368.6" cy="130.0" r="5" fill="#7a8c54"/><circle cx="380.6" cy="130.0" r="5" fill="#7a8c54"/><circle cx="392.7" cy="130.0" r="5" fill="#7a8c54"/><circle cx="404.7" cy="130.0" r="5" fill="#7a8c54"/><circle cx="416.7" cy="130.0" r="5" fill="#7a8c54"/><circle cx="428.7" cy="130.0" r="5" fill="#7a8c54"/><circle cx="440.8" cy="130.0" r="5" fill="#7a8c54"/><circle cx="452.8" cy="130.0" r="5" fill="#7a8c54"/><circle cx="464.8" cy="130.0" r="5" fill="#7a8c54"/><circle cx="476.8" cy="130.0" r="5" fill="#7a8c54"/><circle cx="488.9" cy="130.0" r="5" fill="#7a8c54"/><circle cx="500.9" cy="130.0" r="5" fill="#7a8c54"/><circle cx="512.9" cy="130.0" r="5" fill="#7a8c54"/><circle cx="524.9" cy="130.0" r="5" fill="#7a8c54"/><circle cx="537.0" cy="130.0" r="5" fill="#7a8c54"/><circle cx="549.0" cy="130.0" r="5" fill="#7a8c54"/><circle cx="561.0" cy="130.0" r="5" fill="#7a8c54"/><circle cx="573.0" cy="130.0" r="5" fill="#7a8c54"/><circle cx="585.1" cy="130.0" r="5" fill="#7a8c54"/><circle cx="597.1" cy="130.0" r="5" fill="#7a8c54"/><circle cx="609.1" cy="130.0" r="5" fill="#7a8c54"/><circle cx="621.1" cy="130.0" r="5" fill="#7a8c54"/><circle cx="633.2" cy="130.0" r="5" fill="#7a8c54"/><circle cx="645.2" cy="130.0" r="5" fill="#7a8c54"/><circle cx="657.2" cy="130.0" r="5" fill="#7a8c54"/><circle cx="669.2" cy="130.0" r="5" fill="#7a8c54"/><circle cx="681.3" cy="130.0" r="5" fill="#7a8c54"/><circle cx="693.3" cy="130.0" r="5" fill="#7a8c54"/><circle cx="705.3" cy="130.0" r="5" fill="#7a8c54"/><circle cx="717.3" cy="130.0" r="5" fill="#7a8c54"/><circle cx="729.4" cy="130.0" r="5" fill="#7a8c54"/><circle cx="741.4" cy="130.0" r="5" fill="#7a8c54"/><circle cx="753.4" cy="130.0" r="5" fill="#7a8c54"/><circle cx="765.4" cy="130.0" r="5" fill="#7a8c54"/><circle cx="777.5" cy="130.0" r="5" fill="#7a8c54"/><circle cx="789.5" cy="130.0" r="5" fill="#7a8c54"/><circle cx="801.5" cy="130.0" r="5" fill="#7a8c54"/><circle cx="813.5" cy="130.0" r="5" fill="#7a8c54"/><circle cx="825.6" cy="130.0" r="5" fill="#7a8c54"/><circle cx="837.6" cy="130.0" r="5" fill="#7a8c54"/><circle cx="849.6" cy="130.0" r="5" fill="#7a8c54"/><circle cx="861.6" cy="130.0" r="5" fill="#7a8c54"/><circle cx="873.7" cy="130.0" r="5" fill="#7a8c54"/><circle cx="885.7" cy="130.0" r="5" fill="#7a8c54"/><circle cx="897.7" cy="130.0" r="5" fill="#7a8c54"/><circle cx="909.7" cy="130.0" r="5" fill="#7a8c54"/><circle cx="921.8" cy="130.0" r="5" fill="#7a8c54"/><circle cx="933.8" cy="130.0" r="5" fill="#7a8c54"/><circle cx="945.8" cy="130.0" r="5" fill="#7a8c54"/><circle cx="957.8" cy="130.0" r="5" fill="#7a8c54"/><circle cx="969.9" cy="130.0" r="5" fill="#7a8c54"/><circle cx="981.9" cy="130.0" r="5" fill="#7a8c54"/><circle cx="993.9" cy="130.0" r="5" fill="#7a8c54"/><circle cx="1005.9" cy="130.0" r="5" fill="#7a8c54"/><circle cx="1018.0" cy="130.0" r="5" fill="#7a8c54"/><circle cx="1030.0" cy="130.0" r="5" fill="#7a8c54"/>
<rect x="80" y="490" width="12" height="4" fill="#1d3d32"/><text x="100" y="496" font-family="Arial" font-size="11" fill="#18231f">crop</text><rect x="330" y="490" width="12" height="4" fill="#d97955"/><text x="350" y="496" font-family="Arial" font-size="11" fill="#18231f">pest</text><rect x="580" y="490" width="12" height="4" fill="#277da1"/><text x="600" y="496" font-family="Arial" font-size="11" fill="#18231f">bird</text><rect x="80" y="514" width="12" height="4" fill="#6f5c85"/><text x="100" y="520" font-family="Arial" font-size="11" fill="#18231f">bat</text><rect x="330" y="514" width="12" height="4" fill="#e5b84d"/><text x="350" y="520" font-family="Arial" font-size="11" fill="#18231f">bee</text><rect x="580" y="514" width="12" height="4" fill="#7a8c54"/><text x="600" y="520" font-family="Arial" font-size="11" fill="#18231f">soil_biota</text>
</svg>