<svg xmlns="http://www.w3.org/2000/svg" viewBox="0 0 1100 560">
<rect width="1100" height="560" fill="#f7f9f5"/>
<text x="60" y="58" font-family="Arial" font-size="26" font-weight="700" fill="#18231f">Scenario comparison</text>
<text x="60" y="84" font-family="Arial" font-size="13" fill="#5f6e67">Generated by the AgroEcoSim demo pipeline</text>
<line x1="90" y1="120.0" x2="1030" y2="120.0" stroke="#d9e2dc"/><line x1="90" y1="200.0" x2="1030" y2="200.0" stroke="#d9e2dc"/><line x1="90" y1="280.0" x2="1030" y2="280.0" stroke="#d9e2dc"/><line x1="90" y1="360.0" x2="1030" y2="360.0" stroke="#d9e2dc"/><line x1="90" y1="440.0" x2="1030" y2="440.0" stroke="#d9e2dc"/>
<polyline points="90.0,293.9 278.0,188.4 466.0,213.5 654.0,218.1 842.0,189.3 1030.0,168.3" fill="none" stroke="#1d3d32" stroke-width="4"/><circle cx="90.0" cy="293.9" r="5" fill="#1d3d32"/><circle cx="278.0" cy="188.4" r="5" fill="#1d3d32"/><circle cx="466.0" cy="213.5" r="5" fill="#1d3d32"/><circle cx="654.0" cy="218.1" r="5" fill="#1d3d32"/><circle cx="842.0" cy="189.3" r="5" fill="#1d3d32"/><circle cx="1030.0" cy="168.3" r="5" fill="#1d3d32"/>
<polyline points="90.0,120.0 278.0,440.0 466.0,328.0 654.0,328.0 842.0,376.0 1030.0,408.0" fill="none" stroke="#d97955" stroke-width="4"/><circle cx="90.0" cy="120.0" r="5" fill="#d97955"/><circle cx="278.0" cy="440.0" r="5" fill="#d97955"/><circle cx="466.0" cy="328.0" r="5" fill="#d97955"/><circle cx="654.0" cy="328.0" r="5" fill="#d97955"/><circle cx="842.0" cy="376.0" r="5" fill="#d97955"/><circle cx="1030.0" cy="408.0" r="5" fill="#d97955"/>
<text x="90.0" y="472" text-anchor="middle" font-size="11" fill="#5f6e67">Conventional baseline</text><text x="278.0" y="472" text-anchor="middle" font-size="11" fill="#5f6e67">Chemical withdrawal</text><text x="466.0" y="472" text-anchor="middle" font-size="11" fill="#5f6e67">Bat-assisted control</text><text x="654.0" y="472" text-anchor="middle" font-size="11" fill="#5f6e67">Bee-assisted pollination</text><text x="842.0" y="472" text-anchor="middle" font-size="11" fill="#5f6e67">Integrated biocontrol</text><text x="1030.0" y="472" text-anchor="middle" font-size="11" fill="#5f6e67">Organic transition</text>
<circle cx="780" cy="62" r="5" fill="#1d3d32"/><text x="794" y="67" font-family="Arial" font-size="12" fill="#18231f">stability score</text>
<circle cx="910" cy="62" r="5" fill="#d97955"/><text x="924" y="67" font-family="Arial" font-size="12" fill="#18231f">chemical pressure</text>
</svg>